<?xml version="1.0" encoding="utf-8"?>
<!-- Generator: Adobe Illustrator 21.1.0, SVG Export Plug-In . SVG Version: 6.00 Build 0)  -->
<svg version="1.1" id="Layer_1" xmlns="http://www.w3.org/2000/svg" xmlns:xlink="http://www.w3.org/1999/xlink" x="0px" y="0px"
	 viewBox="0 0 11295.5 2285.5" style="enable-background:new 0 0 11295.5 2285.5;" xml:space="preserve">
<style type="text/css">
	.st0{fill:#99A5B9;}
	.st1{fill:#62738E;}
	.st2{fill:#222222;}
</style>
<g>
	<g>
		<g>
			<path class="st0" d="M1460.6,163.4C1305.8,8.6,1053.8,8.6,899,163.4L86.5,975.9l770.4,770.4l812.5-812.5
				c79.9-79.9,210-79.9,289.9,0c79.9,79.9,79.9,210,0,289.9l-812.5,812.5l135.9,135.9l812.5-812.5c154.8-154.8,154.8-406.8,0-561.6
				L1460.6,163.4z"/>
			<path class="st1" d="M1882.2,1146.7c37.5-37.5,37.5-98.4,0-135.9c-37.5-37.5-98.4-37.5-135.9,0l-889.5,889.5L530.6,1574
				c-37.5-37.5-98.4-37.5-135.9,0c-37.5,37.5-37.5,98.4,0,135.9L856.9,2172l135.9-135.9l0,0L1882.2,1146.7z"/>
		</g>
		<g>
			<g>
				<path class="st2" d="M3962.1,553c0,100.1-27,185.2-80.8,255.2c-53.9,70.1-127.8,119-221.7,146.7v4.6
					c58.5,20,105.4,53.5,140.9,100.5c35.4,47,72.3,123.6,110.9,229.8l159.3,438.8h-429.6l-124.7-371.8
					c-29.3-86.2-63.5-145.9-102.8-179c-39.3-33.1-97.4-49.7-174.4-49.7h-150.1v600.5h-399.6V84.2H3357
					C3760.4,84.2,3962.1,240.5,3962.1,553z M3089.1,825.6h219.4c172.4,0,258.7-73.9,258.7-221.7c0-140.1-91.6-210.1-274.8-210.1
					h-203.2V825.6z"/>
				<path class="st2" d="M5016.4,639.7c88.5,80.8,132.8,199,132.8,354.5v404.2c0,138.6,11.5,248.6,34.6,330.2h-346.4
					c-10.8-43.1-16.1-93.9-16.1-152.4h-4.6c-89.3,121.6-216.3,182.5-381.1,182.5c-124.7,0-223.2-33.9-295.6-101.6
					c-72.4-67.7-108.6-153.9-108.6-258.6c0-103.1,35.8-185.5,107.4-247.1c71.6-61.6,191.3-105.4,359.1-131.6
					c97-15.4,190.9-26.2,281.7-32.4v-41.5c0-63.1-14.6-109.7-43.9-139.7c-29.3-30-69.3-45-120.1-45c-52.4,0-92.8,14.2-121.3,42.7
					c-28.5,28.5-43.5,68.9-45,121.2h-369.5c6.1-118.5,53.9-215.9,143.2-292.1c89.3-76.2,220.2-114.3,392.6-114.3
					C4794.3,518.4,4927.8,558.8,5016.4,639.7z M4571.8,1220.5c-57,10.8-98.1,28.1-123.6,52c-25.4,23.9-38.1,56.6-38.1,98.2
					c0,41.6,13.1,74.3,39.3,98.2c26.2,23.9,63.1,35.8,110.9,35.8c30.8,0,60.4-5,88.9-15c28.5-10,52.7-25,72.8-45
					c23.1-24.6,38.5-52,46.2-82c7.7-30,11.5-71.2,11.5-123.6v-41.6C4705.8,1200.5,4636.5,1208.2,4571.8,1220.5z"/>
				<path class="st2" d="M5952.9,1433v288.7c-26.2,7.7-57.8,13.8-94.7,18.5c-37,4.6-70.1,6.9-99.3,6.9
					c-147.8,0-255.2-30.8-322.2-92.4c-67-61.6-100.5-160.9-100.5-297.9V834.8h-182.4V555.4h182.4V239h383.4v316.4h221.7v279.4
					h-221.7V1269c0,63.2,11.6,108.2,34.7,135.1c23.1,26.9,60.8,40.4,113.2,40.4C5898.2,1444.5,5926.7,1440.7,5952.9,1433z"/>
				<path class="st2" d="M6675.7,1469.9c35.4-26.2,56.2-60,62.4-101.6h390.3c-17,73.9-51.6,141.3-103.9,202.1
					c-52.4,60.9-119.7,108.6-202.1,143.2c-82.4,34.6-174.4,52-276,52c-127.8,0-237.5-27-329.1-80.8c-91.6-53.9-161.3-128.5-209-224
					c-47.7-95.4-71.6-204.7-71.6-327.9c0-117,23.9-222.1,71.6-315.2c47.7-93.1,117.4-166.3,209-219.4
					c91.6-53.1,199.8-79.7,324.5-79.7c137,0,254,33.5,351.1,100.5c97,67,166.3,159,207.8,276c16.9,44.7,28.9,92.4,35.8,143.2
					c6.9,50.8,10.4,111.6,10.4,182.4h-833.7c4.6,103.2,27.7,177.1,69.3,221.7c41.6,44.7,94.7,67,159.4,67
					C6595.6,1509.2,6640.3,1496.1,6675.7,1469.9z M6394,826.7c-38.5,37.7-63.1,96.7-73.9,176.7h441.1c-7.7-78.5-31.6-137-71.6-175.5
					c-40.1-38.5-89.3-57.8-147.8-57.8C6481.7,770.1,6432.4,789,6394,826.7z"/>
				<path class="st2" d="M8317.7,124.6c106.3,51.6,189.4,124.7,249.4,219.4c60,94.7,92.4,205.2,97,331.4h-413.4
					c-9.3-89.3-40.4-158.6-93.5-207.9c-53.1-49.2-122.8-73.9-209-73.9c-109.4,0-195.2,45.8-257.5,137.4
					c-62.4,91.6-93.5,216.7-93.5,375.3c0,158.6,31.2,283.7,93.5,375.3c62.4,91.6,146.7,137.4,252.9,137.4
					c86.2,0,156.7-25.4,211.3-76.2c54.6-50.8,87.4-122.4,98.2-214.8h418c-15.4,203.2-87.8,360.3-217.1,471.1
					c-129.3,110.9-299.5,166.3-510.4,166.3c-157,0-292.9-34.7-407.6-103.9c-114.7-69.3-202.9-168.2-264.4-296.8
					c-61.6-128.5-92.4-281.4-92.4-458.4c0-177,31.2-329.9,93.5-458.4c62.4-128.5,151.3-227.5,266.7-296.8
					c115.5-69.3,251.7-103.9,408.8-103.9C8088.3,47.3,8211.5,73.1,8317.7,124.6z"/>
				<path class="st2" d="M8777.3,386.8V84.2h383.4v302.5H8777.3z M8777.3,1728.6V555.4h383.4v1173.2H8777.3z"/>
				<path class="st2" d="M10001.4,1433v288.7c-26.2,7.7-57.8,13.8-94.7,18.5c-37,4.6-70.1,6.9-99.3,6.9
					c-147.8,0-255.2-30.8-322.2-92.4c-67-61.6-100.5-160.9-100.5-297.9V834.8h-182.4V555.4h182.4V239h383.4v316.4h588.9v279.4
					h-588.9V1269c0,63.2,11.5,108.2,34.7,135.1c23.1,26.9,60.8,40.4,113.2,40.4C9946.7,1444.5,9975.2,1440.7,10001.4,1433z"/>
				<path class="st2" d="M10686,1983.8c-48.5,67-107,115.1-175.5,144.3c-68.5,29.2-153.6,43.9-255.2,43.9
					c-66.2,0-132.5-7-198.6-20.8v-291c37,12.3,76.2,18.5,117.8,18.5c53.9,0,97-13.5,129.3-40.4c32.4-27,48.5-64.3,48.5-112
					c0-21.5-3.9-45.8-11.6-72.8c-7.7-26.9-25.4-78.1-53.1-153.6l-344.1-944.6h413.4l113.2,392.6c49.3,181.7,88.5,344.9,117.8,489.6
					h4.6c32.3-164.7,71.6-328.7,117.8-491.9l108.6-390.3h390.3l-390.3,1152.4C10778.8,1824.8,10734.6,1916.8,10686,1983.8z"/>
			</g>
			<g>
				<g>
					<path class="st2" d="M4440.4,2253.5"/>
				</g>
			</g>
		</g>
	</g>
	<g>
		<path class="st2" d="M2892.8,1852.1c20.2,18.2,30.3,43,30.3,74.6s-10.1,56.5-30.3,74.6c-20.2,18.2-49.4,27.2-87.7,27.2h-72v133.6
			h-43.6v-337.4h115.6C2843.4,1824.9,2872.6,1834,2892.8,1852.1z M2733.2,1990.7h68.7c25.3,0,44.3-5.6,57.1-16.8
			c12.8-11.2,19.2-26.9,19.2-47.1s-6.4-35.9-19.2-47.1c-12.8-11.2-31.8-16.8-57.1-16.8h-68.7V1990.7z"/>
		<path class="st2" d="M3149.2,1949c20.5,22.7,30.8,53.7,30.8,92.9c0,39.2-10.3,70.1-30.8,92.9c-20.5,22.7-48.5,34.1-83.9,34.1
			c-35.4,0-63.3-11.4-83.6-34.1c-20.4-22.7-30.6-53.7-30.6-92.9c0-39.2,10.2-70.1,30.6-92.9c20.4-22.7,48.2-34.1,83.6-34.1
			C3100.7,1914.9,3128.6,1926.3,3149.2,1949z M3013.7,1973.9c-12.6,16.6-19,39.3-19,68c0,28.7,6.3,51.4,19,68
			c12.6,16.6,29.8,24.9,51.6,24.9c22.1,0,39.5-8.3,52.1-24.9c12.6-16.6,19-39.3,19-68c0-28.7-6.3-51.4-19-68
			c-12.6-16.6-30-24.9-52.1-24.9C3043.5,1949,3026.3,1957.3,3013.7,1973.9z"/>
		<path class="st2" d="M3435.8,2162.2l-28.4-104.2c-3.5-13.3-5.7-22.1-6.6-26.5c-7.6-28.1-14.2-54-19.9-77.7h-0.9
			c-5.7,23.7-12.3,49.6-19.9,77.7c-0.9,4.4-3.2,13.3-6.6,26.5l-28.4,104.2h-59.7l-64-240.7h42.2l25.6,100.5
			c7.6,30.3,16.4,66.3,26.5,108h0.9c8.5-36,17.4-71.2,26.5-105.7l27.5-102.8h59.7l27.5,102.8l26.5,105.7h0.9
			c10.1-41.7,19-77.7,26.5-108l25.6-100.5h42.2l-64,240.7H3435.8z"/>
		<path class="st2" d="M3736.5,2123.9c11.2-8.5,18.2-19.7,21.1-33.6h42.6c-4.4,22.4-15.9,41.1-34.4,56.1
			c-18.5,15-42.4,22.5-71.8,22.5c-23.4,0-43.6-5.4-60.6-16.1c-17.1-10.7-30.1-25.9-39.1-45.5s-13.5-42.5-13.5-68.7
			c0-23.7,4.5-44.9,13.5-63.7c9-18.8,22-33.5,38.9-44.1c16.9-10.6,36.7-15.9,59.5-15.9c26.9,0,49.5,7.4,68,22.3
			c18.5,14.8,30.9,35.4,37.2,61.6c3.2,13,4.7,30.2,4.7,51.7h-180.1c1,28.4,8,49.9,21.1,64.4c13.1,14.5,29.9,21.8,50.5,21.8
			C3711.1,2136.7,3725.3,2132.4,3736.5,2123.9z M3644.8,1965.8c-12.3,12.5-19.6,30.1-21.8,52.8h138.4c-2.2-23-9.5-40.8-21.8-53.1
			c-12.3-12.3-28-18.5-46.9-18.5C3673.1,1947.1,3657.1,1953.4,3644.8,1965.8z"/>
		<path class="st2" d="M3988.3,1921.1v37.4c-10.4-0.9-15.9-1.4-16.6-1.4c-22.7,0-40.3,7.1-52.6,21.3c-12.3,14.2-18.5,34.6-18.5,61.1
			v122.7H3859v-240.7h39.8v37h0.9c15.8-26.2,39.5-39.3,71.1-39.3C3977.7,1919.2,3983.6,1919.8,3988.3,1921.1z"/>
		<path class="st2" d="M4030.5,1871.8v-46.9h41.7v46.9H4030.5z M4030.5,2162.2v-240.7h41.7v240.7H4030.5z"/>
		<path class="st2" d="M4324.7,1941.4c15.2,16.7,22.7,41.4,22.7,73.9v146.9h-41.7v-143.6c0-24.3-4.7-41.8-14.2-52.4
			c-9.5-10.6-23.2-15.9-41.2-15.9c-18,0-32.9,6.5-44.8,19.4c-11.8,12.9-17.8,31.1-17.8,54.5v137.9h-41.7v-240.7h40.3v31.7h1
			c7.6-11.4,17.7-20.4,30.3-27c12.6-6.6,26.8-9.9,42.6-9.9C4288.1,1916.3,4309.6,1924.7,4324.7,1941.4z"/>
		<path class="st2" d="M4575.4,1956.6h0.9v-35.1h40.3v226c0,35.1-9,61.5-27,79.4c-18,17.9-44.1,26.8-78.2,26.8
			c-30.6,0-54.7-6.8-72.3-20.4c-17.5-13.6-26.6-32.2-27.2-55.9h41.7c0.6,13.9,6.1,24.7,16.3,32.5s24.2,11.6,41.9,11.6
			c21.8,0,37.9-6,48.3-18c10.4-12,15.6-31.3,15.6-57.8v-26.1h-1c-17.4,26.9-41.2,40.3-71.5,40.3c-20.5,0-38.5-5-53.8-15.2
			c-15.3-10.1-27.2-24.4-35.5-42.9c-8.4-18.5-12.6-39.9-12.6-64.2c0-24.7,4.2-46.2,12.6-64.7c8.4-18.5,20.2-32.7,35.5-42.6
			c15.3-9.9,33.2-14.9,53.8-14.9C4534.9,1915.4,4558.9,1929.1,4575.4,1956.6z M4462.8,1973.9c-11.9,15.9-17.8,37.2-17.8,63.7
			c0,26.2,5.9,47.3,17.8,63.2c11.8,16,27.6,23.9,47.1,23.9c20.8,0,37.3-7.8,49.3-23.5c12-15.6,18-36.9,18-63.7
			c0-27.2-6-48.6-18-64.2c-12-15.6-28.4-23.4-49.3-23.4C4490.4,1950,4474.7,1958,4462.8,1973.9z"/>
		<path class="st2" d="M4955.9,1956.6h0.9v-35.1h40.3v226c0,35.1-9,61.5-27,79.4c-18,17.9-44.1,26.8-78.2,26.8
			c-30.6,0-54.7-6.8-72.3-20.4c-17.5-13.6-26.6-32.2-27.2-55.9h41.7c0.6,13.9,6.1,24.7,16.3,32.5s24.2,11.6,41.9,11.6
			c21.8,0,37.9-6,48.3-18c10.4-12,15.6-31.3,15.6-57.8v-26.1h-1c-17.4,26.9-41.2,40.3-71.5,40.3c-20.5,0-38.5-5-53.8-15.2
			c-15.3-10.1-27.2-24.4-35.5-42.9c-8.4-18.5-12.6-39.9-12.6-64.2c0-24.7,4.2-46.2,12.6-64.7c8.4-18.5,20.2-32.7,35.5-42.6
			c15.3-9.9,33.2-14.9,53.8-14.9C4915.4,1915.4,4939.4,1929.1,4955.9,1956.6z M4843.3,1973.9c-11.9,15.9-17.8,37.2-17.8,63.7
			c0,26.2,5.9,47.3,17.8,63.2c11.8,16,27.6,23.9,47.1,23.9c20.8,0,37.3-7.8,49.3-23.5c12-15.6,18-36.9,18-63.7
			c0-27.2-6-48.6-18-64.2c-12-15.6-28.4-23.4-49.3-23.4C4870.9,1950,4855.2,1958,4843.3,1973.9z"/>
		<path class="st2" d="M5200.3,1921.1v37.4c-10.4-0.9-15.9-1.4-16.6-1.4c-22.7,0-40.3,7.1-52.6,21.3c-12.3,14.2-18.5,34.6-18.5,61.1
			v122.7H5071v-240.7h39.8v37h0.9c15.8-26.2,39.5-39.3,71.1-39.3C5189.8,1919.2,5195.6,1919.8,5200.3,1921.1z"/>
		<path class="st2" d="M5371.6,2123.9c11.2-8.5,18.2-19.7,21.1-33.6h42.6c-4.4,22.4-15.9,41.1-34.4,56.1
			c-18.5,15-42.4,22.5-71.8,22.5c-23.4,0-43.6-5.4-60.6-16.1c-17.1-10.7-30.1-25.9-39.1-45.5s-13.5-42.5-13.5-68.7
			c0-23.7,4.5-44.9,13.5-63.7c9-18.8,22-33.5,38.9-44.1c16.9-10.6,36.7-15.9,59.5-15.9c26.9,0,49.5,7.4,68,22.3
			c18.5,14.8,30.9,35.4,37.2,61.6c3.1,13,4.7,30.2,4.7,51.7h-180.1c1,28.4,8,49.9,21.1,64.4c13.1,14.5,29.9,21.8,50.5,21.8
			C5346.3,2136.7,5360.4,2132.4,5371.6,2123.9z M5280,1965.8c-12.3,12.5-19.6,30.1-21.8,52.8h138.4c-2.2-23-9.5-40.8-21.8-53.1
			c-12.3-12.3-28-18.5-46.9-18.5C5308.2,1947.1,5292.3,1953.4,5280,1965.8z"/>
		<path class="st2" d="M5649.8,1938.4c16.6,15.6,24.9,38.9,24.9,69.9v92.4c0,24.3,1.9,44.8,5.7,61.6h-37.9
			c-2.2-10.1-3.3-21.8-3.3-35.1h-1c-8.5,12.9-19.7,22.9-33.6,29.8s-30.5,10.4-49.8,10.4c-24.6,0-44.4-6.6-59.2-19.7
			c-14.8-13.1-22.3-30.1-22.3-50.9s6.9-37.3,20.6-49.5c13.7-12.2,37.3-20.9,70.8-26.3c23.4-3.8,46.6-6.5,69.7-8.1v-9.5
			c0-19.3-4.8-33.5-14.5-42.6c-9.6-9.1-23-13.7-40-13.7c-17.1,0-30.3,4.3-39.8,13c-9.5,8.7-14.5,20.3-15.2,34.8h-41.7
			c1.3-23.7,10.3-43,27-57.8c16.7-14.9,40-22.3,69.6-22.3C5609.9,1914.9,5633.2,1922.7,5649.8,1938.4z M5571.3,2052.3
			c-20.2,3.1-34.5,7.9-42.9,14.2c-8.4,6.3-12.6,15.5-12.6,27.5c0,12.6,4.3,22.7,13,30.1c8.7,7.4,20.8,11.1,36.2,11.1
			c9.8,0,19-1.7,27.7-5c8.7-3.3,16-8,22-14c7.3-7.6,12.3-15.4,15.2-23.4c2.8-8.1,4.3-19.2,4.3-33.4v-14.7
			C5610,2046.6,5589,2049.2,5571.3,2052.3z"/>
		<path class="st2" d="M5842.9,2127.2v34.1c-7,1.9-15.8,2.8-26.5,2.8c-23,0-39.7-5.4-50-16.1c-10.3-10.7-15.4-28.4-15.4-53.1v-140.2
			h-41.7v-33.2h41.7v-58.3h41.7v58.3h47.9v33.2h-47.9v136c0,13.9,2.5,23.9,7.6,29.8c5,6,13.6,9,25.6,9
			C5832.4,2129.6,5838.1,2128.8,5842.9,2127.2z"/>
		<path class="st2" d="M6029.8,1839.8c11.2-11.5,27.5-17.3,49-17.3c9.8,0,17.9,0.8,24.2,2.4v32.2c-2.8-1-7.4-1.4-13.8-1.4
			c-12,0-20.8,3.2-26.5,9.5c-5.7,6.3-8.5,16.7-8.5,31.3v25.1h47.9v33.2h-47.9v207.5h-41.2v-207.5h-42.2v-33.2h42.2v-29.8
			C6012.9,1868.6,6018.5,1851.3,6029.8,1839.8z M6187.8,1871.8h-41.7v-46.9h41.7V1871.8z M6187.8,1921.5v240.7h-41.7v-240.7H6187.8z
			"/>
		<path class="st2" d="M6440.3,1941.4c15.2,16.7,22.7,41.4,22.7,73.9v146.9h-41.7v-143.6c0-24.3-4.7-41.8-14.2-52.4
			c-9.5-10.6-23.2-15.9-41.2-15.9c-18,0-32.9,6.5-44.8,19.4c-11.9,12.9-17.8,31.1-17.8,54.5v137.9h-41.7v-240.7h40.3v31.7h1
			c7.6-11.4,17.7-20.4,30.3-27c12.6-6.6,26.9-9.9,42.6-9.9C6403.7,1916.3,6425.2,1924.7,6440.3,1941.4z"/>
		<path class="st2" d="M6690.2,1938.4c16.6,15.6,24.9,38.9,24.9,69.9v92.4c0,24.3,1.9,44.8,5.7,61.6h-37.9
			c-2.2-10.1-3.3-21.8-3.3-35.1h-1c-8.5,12.9-19.7,22.9-33.7,29.8s-30.5,10.4-49.7,10.4c-24.6,0-44.4-6.6-59.2-19.7
			c-14.9-13.1-22.3-30.1-22.3-50.9s6.9-37.3,20.6-49.5c13.8-12.2,37.4-20.9,70.8-26.3c23.4-3.8,46.6-6.5,69.6-8.1v-9.5
			c0-19.3-4.8-33.5-14.4-42.6c-9.6-9.1-23-13.7-40-13.7s-30.3,4.3-39.8,13c-9.5,8.7-14.5,20.3-15.2,34.8h-41.7
			c1.3-23.7,10.3-43,27-57.8c16.7-14.9,40-22.3,69.6-22.3C6650.4,1914.9,6673.7,1922.7,6690.2,1938.4z M6611.8,2052.3
			c-20.2,3.1-34.5,7.9-42.9,14.2c-8.4,6.3-12.6,15.5-12.6,27.5c0,12.6,4.3,22.7,13,30.1c8.7,7.4,20.8,11.1,36.3,11.1
			c9.8,0,19-1.7,27.7-5c8.7-3.3,16-8,22-14c7.3-7.6,12.3-15.4,15.2-23.4c2.8-8.1,4.3-19.2,4.3-33.4v-14.7
			C6650.5,2046.6,6629.5,2049.2,6611.8,2052.3z"/>
		<path class="st2" d="M6964.8,1941.4c15.2,16.7,22.7,41.4,22.7,73.9v146.9h-41.7v-143.6c0-24.3-4.7-41.8-14.2-52.4
			c-9.5-10.6-23.2-15.9-41.2-15.9c-18,0-32.9,6.5-44.8,19.4c-11.9,12.9-17.8,31.1-17.8,54.5v137.9h-41.7v-240.7h40.3v31.7h1
			c7.6-11.4,17.7-20.4,30.3-27c12.6-6.6,26.9-9.9,42.6-9.9C6928.2,1916.3,6949.7,1924.7,6964.8,1941.4z"/>
		<path class="st2" d="M7205.8,1926.5c15,7.7,27,18.6,36,32.5c9,13.9,14.3,29.8,15.9,47.9h-43.6c-1.6-17.1-7.8-31-18.7-41.7
			c-10.9-10.8-24.6-16.1-41-16.1c-21.2,0-37.9,8.3-50.2,24.9s-18.5,39.3-18.5,68c0,28.7,6.1,51.4,18.2,68
			c12.2,16.6,29,24.9,50.5,24.9c16.4,0,30.1-5.8,41-17.3s17.1-26.1,18.7-43.8h43.6c-1.6,18.3-6.8,34.7-15.6,49.1
			c-8.8,14.4-20.8,25.7-35.8,33.9c-15,8.2-32.2,12.3-51.4,12.3c-23,0-43.1-5.1-60.2-15.4c-17.1-10.3-30.2-24.9-39.3-44.1
			c-9.2-19.1-13.8-41.6-13.8-67.5s4.6-48.4,13.8-67.5c9.1-19.1,22.3-33.8,39.3-44.1c17.1-10.3,37.1-15.4,60.2-15.4
			C7173.8,1914.9,7190.8,1918.8,7205.8,1926.5z"/>
		<path class="st2" d="M7312.1,1871.8v-46.9h41.7v46.9H7312.1z M7312.1,2162.2v-240.7h41.7v240.7H7312.1z"/>
		<path class="st2" d="M7583.4,1938.4c16.6,15.6,24.9,38.9,24.9,69.9v92.4c0,24.3,1.9,44.8,5.7,61.6h-37.9
			c-2.2-10.1-3.3-21.8-3.3-35.1h-1c-8.5,12.9-19.7,22.9-33.7,29.8s-30.5,10.4-49.7,10.4c-24.6,0-44.4-6.6-59.2-19.7
			c-14.9-13.1-22.3-30.1-22.3-50.9s6.9-37.3,20.6-49.5c13.8-12.2,37.4-20.9,70.8-26.3c23.4-3.8,46.6-6.5,69.6-8.1v-9.5
			c0-19.3-4.8-33.5-14.4-42.6c-9.6-9.1-23-13.7-40-13.7s-30.3,4.3-39.8,13s-14.5,20.3-15.2,34.8h-41.7c1.3-23.7,10.3-43,27-57.8
			c16.7-14.9,40-22.3,69.6-22.3C7543.5,1914.9,7566.8,1922.7,7583.4,1938.4z M7505,2052.3c-20.2,3.1-34.5,7.9-42.9,14.2
			c-8.4,6.3-12.6,15.5-12.6,27.5c0,12.6,4.3,22.7,13,30.1c8.7,7.4,20.8,11.1,36.3,11.1c9.8,0,19-1.7,27.7-5c8.7-3.3,16-8,22-14
			c7.3-7.6,12.3-15.4,15.2-23.4c2.8-8.1,4.3-19.2,4.3-33.4v-14.7C7543.7,2046.6,7522.7,2049.2,7505,2052.3z"/>
		<path class="st2" d="M7679.4,2162.2v-337.4h41.7v337.4H7679.4z"/>
		<path class="st2" d="M8062.2,2162.2v-35.1h-0.9c-6.6,12.6-16.5,22.6-29.6,29.8c-13.1,7.3-27.9,10.9-44.3,10.9
			c-20.2,0-38-5.2-53.3-15.6s-27.1-25.2-35.3-44.3c-8.2-19.1-12.3-41.3-12.3-66.6c0-25.3,4.1-47.4,12.3-66.6
			c8.2-19.1,19.9-33.8,35.1-44.1c15.2-10.3,32.9-15.4,53.1-15.4c16.1,0,30.7,3.6,43.8,10.7c13.1,7.1,23,16.7,29.6,28.7h1v-129.8
			h41.7v337.4H8062.2z M7948.5,1974.1c-12.3,16.7-18.5,39.2-18.5,67.3c0,28.1,6.1,50.6,18.5,67.5c12.3,16.9,28.7,25.4,49.3,25.4
			c19.9,0,35.8-8.4,47.9-25.1c12-16.7,18-39.3,18-67.8c0-28.4-6-50.9-18-67.5c-12-16.6-28-24.9-47.9-24.9
			C7977.2,1949,7960.8,1957.4,7948.5,1974.1z"/>
		<path class="st2" d="M8315,2123.9c11.2-8.5,18.2-19.7,21.1-33.6h42.6c-4.4,22.4-15.9,41.1-34.3,56.1c-18.5,15-42.4,22.5-71.8,22.5
			c-23.4,0-43.6-5.4-60.7-16.1c-17.1-10.7-30.1-25.9-39.1-45.5c-9-19.6-13.5-42.5-13.5-68.7c0-23.7,4.5-44.9,13.5-63.7
			c9-18.8,21.9-33.5,38.8-44.1c16.9-10.6,36.7-15.9,59.5-15.9c26.8,0,49.5,7.4,68,22.3c18.5,14.8,30.9,35.4,37.2,61.6
			c3.2,13,4.7,30.2,4.7,51.7h-180c0.9,28.4,8,49.9,21.1,64.4c13.1,14.5,29.9,21.8,50.5,21.8
			C8289.6,2136.7,8303.8,2132.4,8315,2123.9z M8223.3,1965.8c-12.3,12.5-19.6,30.1-21.8,52.8h138.4c-2.2-23-9.5-40.8-21.8-53.1
			c-12.3-12.3-28-18.5-46.9-18.5C8251.6,1947.1,8235.6,1953.4,8223.3,1965.8z"/>
		<path class="st2" d="M8588.9,1926.5c15,7.7,27,18.6,36,32.5c9,13.9,14.3,29.8,15.9,47.9h-43.6c-1.6-17.1-7.8-31-18.7-41.7
			c-10.9-10.8-24.6-16.1-41-16.1c-21.2,0-37.9,8.3-50.2,24.9s-18.5,39.3-18.5,68c0,28.7,6.1,51.4,18.2,68
			c12.2,16.6,29,24.9,50.5,24.9c16.4,0,30.1-5.8,41-17.3s17.1-26.1,18.7-43.8h43.6c-1.6,18.3-6.8,34.7-15.6,49.1
			c-8.8,14.4-20.8,25.7-35.8,33.9c-15,8.2-32.2,12.3-51.4,12.3c-23,0-43.1-5.1-60.2-15.4c-17.1-10.3-30.2-24.9-39.3-44.1
			c-9.2-19.1-13.8-41.6-13.8-67.5s4.6-48.4,13.8-67.5c9.1-19.1,22.3-33.8,39.3-44.1c17.1-10.3,37.1-15.4,60.2-15.4
			C8556.9,1914.9,8573.8,1918.8,8588.9,1926.5z"/>
		<path class="st2" d="M8695.2,1871.8v-46.9h41.7v46.9H8695.2z M8695.2,2162.2v-240.7h41.7v240.7H8695.2z"/>
		<path class="st2" d="M8956.3,1936.2c16.4,14.2,24.6,34.4,24.6,60.7h-40.7c0-16.1-4.7-28.4-14-37c-9.3-8.5-22.5-12.8-39.6-12.8
			c-14.5,0-26,3.1-34.3,9.2c-8.4,6.2-12.6,14.4-12.6,24.9c0,8.2,2,14.5,5.9,19c4,4.4,9.6,7.9,16.8,10.4c7.3,2.5,18.9,5.7,35.1,9.5
			c20.8,5,37,9.8,48.6,14.2c11.5,4.4,21.5,11.6,29.8,21.6c8.4,9.9,12.6,23.6,12.6,41c0,21.8-8.6,39.3-25.8,52.4
			c-17.2,13.1-40.4,19.7-69.4,19.7c-31.9,0-56.6-7.4-74.1-22.3c-17.5-14.8-26.5-36.3-26.8-64.4h42.2c0,17.1,5.1,30.2,15.4,39.6
			c10.3,9.3,24.9,14,43.8,14c15.8,0,28.4-3.3,37.9-9.9c9.5-6.6,14.2-15.3,14.2-26.1c0-9.2-2.2-16.3-6.6-21.3
			c-4.4-5-10.9-9.1-19.4-12.1c-8.5-3-22-6.7-40.3-11.1c-19.3-4.7-34-9.1-44.1-13c-10.1-4-18.9-10.4-26.3-19.4
			c-7.4-9-11.1-21.7-11.1-38.1c0-20.5,8.3-37.3,24.9-50.2c16.6-12.9,38-19.4,64.2-19.4C8916.8,1914.9,8939.9,1922,8956.3,1936.2z"/>
		<path class="st2" d="M9044.9,1871.8v-46.9h41.7v46.9H9044.9z M9044.9,2162.2v-240.7h41.7v240.7H9044.9z"/>
		<path class="st2" d="M9341,1949c20.5,22.7,30.8,53.7,30.8,92.9c0,39.2-10.3,70.1-30.8,92.9c-20.5,22.7-48.5,34.1-83.9,34.1
			c-35.4,0-63.3-11.4-83.6-34.1c-20.4-22.7-30.6-53.7-30.6-92.9c0-39.2,10.2-70.1,30.6-92.9c20.4-22.7,48.2-34.1,83.6-34.1
			C9292.5,1914.9,9320.5,1926.3,9341,1949z M9205.5,1973.9c-12.6,16.6-18.9,39.3-18.9,68c0,28.7,6.3,51.4,18.9,68
			c12.6,16.6,29.8,24.9,51.7,24.9c22.1,0,39.5-8.3,52.1-24.9c12.6-16.6,18.9-39.3,18.9-68c0-28.7-6.3-51.4-18.9-68
			c-12.6-16.6-30-24.9-52.1-24.9C9235.4,1949,9218.2,1957.3,9205.5,1973.9z"/>
		<path class="st2" d="M9606.8,1941.4c15.2,16.7,22.7,41.4,22.7,73.9v146.9h-41.7v-143.6c0-24.3-4.7-41.8-14.2-52.4
			c-9.5-10.6-23.2-15.9-41.2-15.9c-18,0-32.9,6.5-44.8,19.4c-11.9,12.9-17.8,31.1-17.8,54.5v137.9h-41.7v-240.7h40.3v31.7h1
			c7.6-11.4,17.7-20.4,30.3-27c12.6-6.6,26.9-9.9,42.6-9.9C9570.2,1916.3,9591.7,1924.7,9606.8,1941.4z"/>
		<path class="st2" d="M9846.6,1936.2c16.4,14.2,24.6,34.4,24.6,60.7h-40.7c0-16.1-4.7-28.4-14-37c-9.3-8.5-22.5-12.8-39.6-12.8
			c-14.5,0-26,3.1-34.3,9.2c-8.4,6.2-12.6,14.4-12.6,24.9c0,8.2,2,14.5,5.9,19c4,4.4,9.6,7.9,16.8,10.4c7.3,2.5,18.9,5.7,35.1,9.5
			c20.8,5,37,9.8,48.6,14.2c11.5,4.4,21.5,11.6,29.8,21.6c8.4,9.9,12.6,23.6,12.6,41c0,21.8-8.6,39.3-25.8,52.4
			c-17.2,13.1-40.4,19.7-69.4,19.7c-31.9,0-56.6-7.4-74.1-22.3c-17.5-14.8-26.5-36.3-26.8-64.4h42.2c0,17.1,5.1,30.2,15.4,39.6
			c10.3,9.3,24.9,14,43.8,14c15.8,0,28.4-3.3,37.9-9.9c9.5-6.6,14.2-15.3,14.2-26.1c0-9.2-2.2-16.3-6.6-21.3
			c-4.4-5-10.9-9.1-19.4-12.1c-8.5-3-22-6.7-40.3-11.1c-19.3-4.7-34-9.1-44.1-13c-10.1-4-18.9-10.4-26.3-19.4
			c-7.4-9-11.1-21.7-11.1-38.1c0-20.5,8.3-37.3,24.9-50.2c16.6-12.9,38-19.4,64.2-19.4C9807.1,1914.9,9830.2,1922,9846.6,1936.2z"/>
	</g>
</g>
</svg>
